<?xml version="1.0" encoding="UTF-8" standalone="no"?>
<svg
   xmlns:dc="http://purl.org/dc/elements/1.1/"
   xmlns:cc="http://creativecommons.org/ns#"
   xmlns:rdf="http://www.w3.org/1999/02/22-rdf-syntax-ns#"
   xmlns:svg="http://www.w3.org/2000/svg"
   xmlns="http://www.w3.org/2000/svg"
   xmlns:xlink="http://www.w3.org/1999/xlink"
   width="5.507206mm"
   height="5.5082002mm"
   viewBox="0 0 5.5072061 5.5082002"
   version="1.1"
   id="svg2122">
  <defs
     id="defs2116">
    <linearGradient
       xlink:href="#linearGradient1807"
       id="linearGradient1925"
       gradientUnits="userSpaceOnUse"
       x1="-1634.5084"
       y1="1335.5024"
       x2="-1634.4521"
       y2="1332.3503"
       gradientTransform="translate(1704.3801,-1180.9295)" />
    <linearGradient
       id="linearGradient1807">
      <stop
         style="stop-color:#c34ff0;stop-opacity:1;"
         offset="0"
         id="stop1803" />
      <stop
         style="stop-color:#c34ff0;stop-opacity:0;"
         offset="1"
         id="stop1805" />
    </linearGradient>
  </defs>
  <metadata
     id="metadata2119">
    <rdf:RDF>
      <cc:Work
         rdf:about="">
        <dc:format>image/svg+xml</dc:format>
        <dc:type
           rdf:resource="http://purl.org/dc/dcmitype/StillImage" />
        <dc:title></dc:title>
      </cc:Work>
    </rdf:RDF>
  </metadata>
  <g
     id="layer1"
     transform="translate(-64.487852,-149.60944)">
    <rect
       style="fill:none;fill-opacity:1;stroke:#f0db4f;stroke-width:0.2;stroke-miterlimit:4;stroke-dasharray:none;stroke-opacity:1"
       id="rect1917"
       width="5.3072062"
       height="5.3072782"
       x="64.587852"
       y="149.71005"
       ry="0.49140331" />
    <path
       style="fill:#f0db4f;fill-opacity:1;stroke-width:0.0104755"
       d="m 66.612327,154.51694 c -0.1628,-0.032 -0.282,-0.094 -0.3878,-0.1995 -0.063,-0.063 -0.1413,-0.1776 -0.1413,-0.2076 0,-0.018 0.3377,-0.2274 0.3658,-0.2273 0.01,1e-4 0.027,0.02 0.042,0.044 0.036,0.062 0.1037,0.1327 0.1529,0.1584 0.032,0.017 0.062,0.023 0.1209,0.023 0.1275,3.9e-4 0.1948,-0.044 0.2334,-0.1533 0.01,-0.025 0.013,-0.2819 0.018,-0.8882 l 0.01,-0.8538 h 0.2186 c 0.1566,0 0.2229,6.9e-4 0.2337,0.01 0.012,0.01 0.021,0.1393 0.018,0.8828 0,0.8622 -0.01,0.8713 -0.033,0.9543 -0.036,0.1304 -0.081,0.2109 -0.1585,0.2883 -0.123901,0.1229 -0.262801,0.1757 -0.4827,0.1833 -0.087,0 -0.155401,-2.9e-4 -0.204301,-0.01 z m 1.8132,0 c -0.2196,-0.032 -0.4163,-0.1312 -0.5496,-0.277 -0.058,-0.063 -0.127,-0.164 -0.127,-0.1849 0,-0.015 0.3424,-0.2179 0.3687,-0.2179 0.01,0 0.028,0.018 0.043,0.041 0.097,0.1462 0.2545,0.2317 0.4274,0.2317 0.2018,0 0.3425,-0.1176 0.3179,-0.2656 -0.02,-0.1222 -0.081,-0.1661 -0.4499,-0.3268 -0.4131,-0.1798 -0.5709,-0.375 -0.5709,-0.706 0,-0.1843 0.052,-0.3158 0.172,-0.435 0.1266,-0.1258 0.2645,-0.182 0.4696,-0.1914 0.31,-0.014 0.5277,0.085 0.6759,0.3086 0.032,0.048 0.035,0.059 0.023,0.07 -0.026,0.025 -0.3262,0.2153 -0.3395,0.2153 -0.01,0 -0.033,-0.028 -0.06,-0.061 -0.058,-0.074 -0.1291,-0.1154 -0.2147,-0.1243 -0.1817,-0.019 -0.3,0.1075 -0.2543,0.2717 0.023,0.081 0.1123,0.1429 0.3605,0.2479 0.3966,0.1677 0.5639,0.3111 0.6352,0.5449 0.031,0.1034 0.034,0.2972 0.01,0.3929 -0.062,0.2039 -0.2079,0.351 -0.4228,0.4251 -0.1325,0.045 -0.3528,0.062 -0.5101,0.04 z"
       id="path1919" />
    <path
       id="path1921"
       style="color:#000000;font-style:normal;font-variant:normal;font-weight:normal;font-stretch:normal;font-size:medium;line-height:normal;font-family:sans-serif;font-variant-ligatures:normal;font-variant-position:normal;font-variant-caps:normal;font-variant-numeric:normal;font-variant-alternates:normal;font-variant-east-asian:normal;font-feature-settings:normal;font-variation-settings:normal;text-indent:0;text-align:start;text-decoration:none;text-decoration-line:none;text-decoration-style:solid;text-decoration-color:#000000;letter-spacing:normal;word-spacing:normal;text-transform:none;writing-mode:lr-tb;direction:ltr;text-orientation:mixed;dominant-baseline:auto;baseline-shift:baseline;text-anchor:start;white-space:normal;shape-padding:0;shape-margin:0;inline-size:0;clip-rule:nonzero;display:inline;overflow:visible;visibility:visible;opacity:1;isolation:auto;mix-blend-mode:normal;color-interpolation:sRGB;color-interpolation-filters:linearRGB;solid-color:#000000;solid-opacity:1;vector-effect:none;fill:#4f6cf0;fill-opacity:1;fill-rule:nonzero;stroke:none;stroke-width:0.2;stroke-linecap:butt;stroke-linejoin:miter;stroke-miterlimit:4;stroke-dasharray:none;stroke-dashoffset:0;stroke-opacity:1;color-rendering:auto;image-rendering:auto;shape-rendering:auto;text-rendering:auto;enable-background:accumulate;stop-color:#000000;stop-opacity:1"
       d="m 65.080027,149.60944 c -0.3258,0 -0.5916,0.2663 -0.5916,0.5922 v 4.3238 c 0,0.3259 0.2658,0.5922 0.5916,0.5922 h 4.3243 c 0.326,0 0.5897,-0.2664 0.5897,-0.5922 v -4.3238 c 0,-0.3259 -0.2637,-0.5922 -0.5897,-0.5922 z m 0,0.2011 h 4.3243 c 0.2187,0 0.3907,0.1725 0.3907,0.3911 v 4.3238 c 0,0.2185 -0.172,0.3927 -0.3907,0.3927 h -4.3243 c -0.2184,0 -0.3927,-0.1742 -0.3927,-0.3927 v -4.3238 c 0,-0.2186 0.1743,-0.3911 0.3927,-0.3911 z m 3.4469,2.3745 c -0.2051,0.01 -0.3432,0.065 -0.4698,0.1912 -0.12,0.1192 -0.172,0.2508 -0.172,0.4351 0,0.331 0.1579,0.5261 0.571,0.7059 0.3689,0.1607 0.4301,0.2049 0.4501,0.3271 0.025,0.148 -0.1166,0.2656 -0.3184,0.2656 -0.1729,0 -0.3303,-0.086 -0.4273,-0.232 -0.015,-0.023 -0.033,-0.041 -0.043,-0.041 -0.026,0 -0.3685,0.203 -0.3685,0.218 0,0.021 0.069,0.1215 0.1266,0.1845 0.1333,0.1458 0.3303,0.2455 0.5499,0.2775 v -0.001 c 0.1573,0.022 0.3781,0.01 0.5106,-0.04 0.2149,-0.074 0.3607,-0.2214 0.4227,-0.4253 0.024,-0.096 0.021,-0.2893 -0.01,-0.3927 -0.071,-0.2338 -0.2385,-0.3775 -0.635,-0.5452 -0.2482,-0.105 -0.3372,-0.1671 -0.3602,-0.2481 -0.046,-0.1642 0.072,-0.2903 0.2542,-0.2713 0.086,0.01 0.1565,0.05 0.2145,0.1241 0.027,0.033 0.05,0.061 0.06,0.061 0.013,0 0.3135,-0.1899 0.3395,-0.2149 0.012,-0.011 0.01,-0.022 -0.023,-0.07 -0.1482,-0.2236 -0.3659,-0.3225 -0.6759,-0.3085 z m -1.5007,0.027 -0.01,0.8542 c 0,0.6063 -0.01,0.8628 -0.018,0.8878 -0.039,0.1093 -0.1061,0.1539 -0.2336,0.1534 -0.059,0 -0.089,-0.01 -0.1209,-0.023 -0.049,-0.026 -0.117,-0.097 -0.153,-0.1586 -0.015,-0.024 -0.032,-0.044 -0.042,-0.044 -0.028,-2e-4 -0.3658,0.2093 -0.3658,0.2273 0,0.03 0.079,0.1443 0.1416,0.2073 0.1058,0.1054 0.2247,0.1679 0.3875,0.1999 h 0.01 c 0.049,0.01 0.1177,0.01 0.2047,0.01 0.2199,-0.01 0.3587,-0.06 0.4826,-0.1829 0.078,-0.078 0.1222,-0.158 0.1582,-0.2884 0.023,-0.083 0.033,-0.092 0.033,-0.9545 0,-0.7435 -0.01,-0.8726 -0.018,-0.8826 -0.011,-0.01 -0.077,-0.01 -0.233601,-0.01 z" />
    <path
       id="path1923"
       style="color:#000000;font-style:normal;font-variant:normal;font-weight:normal;font-stretch:normal;font-size:medium;line-height:normal;font-family:sans-serif;font-variant-ligatures:normal;font-variant-position:normal;font-variant-caps:normal;font-variant-numeric:normal;font-variant-alternates:normal;font-variant-east-asian:normal;font-feature-settings:normal;font-variation-settings:normal;text-indent:0;text-align:start;text-decoration:none;text-decoration-line:none;text-decoration-style:solid;text-decoration-color:#000000;letter-spacing:normal;word-spacing:normal;text-transform:none;writing-mode:lr-tb;direction:ltr;text-orientation:mixed;dominant-baseline:auto;baseline-shift:baseline;text-anchor:start;white-space:normal;shape-padding:0;shape-margin:0;inline-size:0;clip-rule:nonzero;display:inline;overflow:visible;visibility:visible;opacity:1;isolation:auto;mix-blend-mode:normal;color-interpolation:sRGB;color-interpolation-filters:linearRGB;solid-color:#000000;solid-opacity:1;vector-effect:none;fill:url(#linearGradient1925);fill-opacity:1;fill-rule:nonzero;stroke:none;stroke-width:0.2;stroke-linecap:butt;stroke-linejoin:miter;stroke-miterlimit:4;stroke-dasharray:none;stroke-dashoffset:0;stroke-opacity:1;color-rendering:auto;image-rendering:auto;shape-rendering:auto;text-rendering:auto;enable-background:accumulate;stop-color:#000000;stop-opacity:1"
       d="m 65.080027,149.60944 c -0.3258,0 -0.5916,0.2663 -0.5916,0.5922 v 4.3238 c 0,0.3259 0.2658,0.5922 0.5916,0.5922 h 4.3243 c 0.326,0 0.5897,-0.2664 0.5897,-0.5922 v -4.3238 c 0,-0.3259 -0.2637,-0.5922 -0.5897,-0.5922 z m 0,0.2011 h 4.3243 c 0.2187,0 0.3907,0.1725 0.3907,0.3911 v 4.3238 c 0,0.2185 -0.172,0.3927 -0.3907,0.3927 h -4.3243 c -0.2184,0 -0.3927,-0.1742 -0.3927,-0.3927 v -4.3238 c 0,-0.2186 0.1743,-0.3911 0.3927,-0.3911 z m 3.4469,2.3745 c -0.2051,0.01 -0.3432,0.065 -0.4698,0.1912 -0.12,0.1192 -0.172,0.2508 -0.172,0.4351 0,0.331 0.1579,0.5261 0.571,0.7059 0.3689,0.1607 0.4301,0.2049 0.4501,0.3271 0.025,0.148 -0.1166,0.2656 -0.3184,0.2656 -0.1729,0 -0.3303,-0.086 -0.4273,-0.232 -0.015,-0.023 -0.033,-0.041 -0.043,-0.041 -0.026,0 -0.3685,0.203 -0.3685,0.218 0,0.021 0.069,0.1215 0.1266,0.1845 0.1333,0.1458 0.3303,0.2455 0.5499,0.2775 v -0.001 c 0.1573,0.022 0.3781,0.01 0.5106,-0.04 0.2149,-0.074 0.3607,-0.2214 0.4227,-0.4253 0.024,-0.096 0.021,-0.2893 -0.01,-0.3927 -0.071,-0.2338 -0.2385,-0.3775 -0.635,-0.5452 -0.2482,-0.105 -0.3372,-0.1671 -0.3602,-0.2481 -0.046,-0.1642 0.072,-0.2903 0.2542,-0.2713 0.086,0.01 0.1565,0.05 0.2145,0.1241 0.027,0.033 0.05,0.061 0.06,0.061 0.013,0 0.3135,-0.1899 0.3395,-0.2149 0.012,-0.011 0.01,-0.022 -0.023,-0.07 -0.1482,-0.2236 -0.3659,-0.3225 -0.6759,-0.3085 z m -1.5007,0.027 -0.01,0.8542 c 0,0.6063 -0.01,0.8628 -0.018,0.8878 -0.039,0.1093 -0.1061,0.1539 -0.2336,0.1534 -0.059,0 -0.089,-0.01 -0.1209,-0.023 -0.049,-0.026 -0.117,-0.097 -0.153,-0.1586 -0.015,-0.024 -0.032,-0.044 -0.042,-0.044 -0.028,-2e-4 -0.3658,0.2093 -0.3658,0.2273 0,0.03 0.079,0.1443 0.1416,0.2073 0.1058,0.1054 0.2247,0.1679 0.3875,0.1999 h 0.01 c 0.049,0.01 0.1177,0.01 0.2047,0.01 0.2199,-0.01 0.3587,-0.06 0.4826,-0.1829 0.078,-0.078 0.1222,-0.158 0.1582,-0.2884 0.023,-0.083 0.033,-0.092 0.033,-0.9545 0,-0.7435 -0.01,-0.8726 -0.018,-0.8826 -0.011,-0.01 -0.077,-0.01 -0.233601,-0.01 z" />
  </g>
</svg>
