<svg width="119" height="88" viewBox="0 0 119 88" fill="none" xmlns="http://www.w3.org/2000/svg">
<g filter="url(#filter0_di_13_12)">
<path fill-rule="evenodd" clip-rule="evenodd" d="M87.3431 79.779C90.3791 79.779 92.3084 76.5294 90.8548 73.8639L51.7107 2.08489C50.1947 -0.69497 46.2032 -0.694961 44.6872 2.0849L5.5431 73.8639C4.08949 76.5294 6.01876 79.779 9.05484 79.779H12.4835C13.9474 79.779 15.2944 78.9794 15.9953 77.6941L44.6872 25.0814C46.2032 22.3016 50.1947 22.3016 51.7107 25.0814L80.4026 77.6941C81.1035 78.9794 82.4505 79.779 83.9144 79.779H87.3431Z" fill="url(#paint0_linear_13_12)"/>
<path fill-rule="evenodd" clip-rule="evenodd" d="M57.3604 63.2522C87.9889 67.8863 113.776 65.3115 114.958 57.5012C116.14 49.6909 92.2682 39.6027 61.6396 34.9686C31.0111 30.3345 5.22374 32.9093 4.04205 40.7196C2.86035 48.5299 26.7318 58.6181 57.3604 63.2522ZM49.7488 60.8422C75.5541 64.7465 97.2806 62.5772 98.2762 55.9968C99.2718 49.4165 79.1595 40.917 53.3542 37.0126C27.5489 33.1083 5.82247 35.2776 4.82687 41.858C3.83126 48.4383 23.9435 56.9379 49.7488 60.8422Z" fill="#FF715D"/>
</g>
<defs>
<filter id="filter0_di_13_12" x="0" y="0" width="119" height="87.7791" filterUnits="userSpaceOnUse" color-interpolation-filters="sRGB">
<feFlood flood-opacity="0" result="BackgroundImageFix"/>
<feColorMatrix in="SourceAlpha" type="matrix" values="0 0 0 0 0 0 0 0 0 0 0 0 0 0 0 0 0 0 127 0" result="hardAlpha"/>
<feOffset dy="4"/>
<feGaussianBlur stdDeviation="2"/>
<feComposite in2="hardAlpha" operator="out"/>
<feColorMatrix type="matrix" values="0 0 0 0 0 0 0 0 0 0 0 0 0 0 0 0 0 0 0.25 0"/>
<feBlend mode="normal" in2="BackgroundImageFix" result="effect1_dropShadow_13_12"/>
<feBlend mode="normal" in="SourceGraphic" in2="effect1_dropShadow_13_12" result="shape"/>
<feColorMatrix in="SourceAlpha" type="matrix" values="0 0 0 0 0 0 0 0 0 0 0 0 0 0 0 0 0 0 127 0" result="hardAlpha"/>
<feOffset dy="4"/>
<feGaussianBlur stdDeviation="2"/>
<feComposite in2="hardAlpha" operator="arithmetic" k2="-1" k3="1"/>
<feColorMatrix type="matrix" values="0 0 0 0 0 0 0 0 0 0 0 0 0 0 0 0 0 0 0.25 0"/>
<feBlend mode="normal" in2="shape" result="effect2_innerShadow_13_12"/>
</filter>
<linearGradient id="paint0_linear_13_12" x1="48.1989" y1="0" x2="48.1989" y2="79.779" gradientUnits="userSpaceOnUse">
<stop stop-color="#FF715D"/>
<stop offset="1" stop-color="#FFBE5D" stop-opacity="0.2"/>
</linearGradient>
</defs>
</svg>
