<?xml version="1.0" encoding="UTF-8"?>
<svg width="150mm" height="150mm" version="1.1" viewBox="0 0 150 150" xmlns="http://www.w3.org/2000/svg" xmlns:cc="http://creativecommons.org/ns#" xmlns:dc="http://purl.org/dc/elements/1.1/" xmlns:rdf="http://www.w3.org/1999/02/22-rdf-syntax-ns#">
 <metadata>
  <rdf:RDF>
   <cc:Work rdf:about="">
    <dc:format>image/svg+xml</dc:format>
    <dc:type rdf:resource="http://purl.org/dc/dcmitype/StillImage"/>
    <dc:title/>
   </cc:Work>
  </rdf:RDF>
 </metadata>
 <rect width="150" height="150" fill="#f0f" opacity=".1" stroke-width=".26458"/>
 <g transform="translate(-54.804 -14.417)" fill="#fff" style="shape-inside:url(#rect28);white-space:pre" aria-label="No Texture Selected">
  <path d="m81.881 83.343h-2.701l-7.7832-14.684v14.684h-2.0395v-16.415h3.3845l7.0997 13.406v-13.406h2.0395z"/>
  <path d="m96.576 77.191q0 3.0096-1.5434 4.7515-1.5434 1.7418-4.1341 1.7418-2.6128 0-4.1562-1.7418-1.5324-1.7418-1.5324-4.7515 0-3.0096 1.5324-4.7515 1.5434-1.7529 4.1562-1.7529 2.5907 0 4.1341 1.7529 1.5434 1.7418 1.5434 4.7515zm-2.1387 0q0-2.3923-0.93707-3.5498-0.93707-1.1686-2.6017-1.1686-1.6867 0-2.6238 1.1686-0.92604 1.1576-0.92604 3.5498 0 2.3151 0.93707 3.5168 0.93707 1.1906 2.6128 1.1906 1.6536 0 2.5907-1.1796 0.94809-1.1906 0.94809-3.5278z"/>
  <path d="m119.6 68.868h-5.8649v14.475h-2.1828v-14.475h-5.8649v-1.9403h13.913z"/>
  <path d="m129.52 77.4h-9.073q0 1.1355 0.34175 1.9844 0.34176 0.83785 0.93707 1.378 0.57326 0.52917 1.356 0.79375 0.79375 0.26458 1.7418 0.26458 1.2568 0 2.5246-0.49609 1.2788-0.50712 1.819-0.99219h0.11025v2.26q-1.0473 0.44097-2.1387 0.73863-1.0914 0.29766-2.2931 0.29766-3.0648 0-4.7846-1.6536-1.7198-1.6647-1.7198-4.7184 0-3.0207 1.6426-4.7956 1.6536-1.7749 4.3436-1.7749 2.4915 0 3.8365 1.4552 1.356 1.4552 1.356 4.1341zm-2.0174-1.5875q-0.011-1.6316-0.82682-2.5246-0.80478-0.89297-2.4584-0.89297-1.6647 0-2.6569 0.98116-0.98117 0.98116-1.1135 2.4364z"/>
  <path d="m143.32 83.343h-2.6128l-3.4947-4.7294-3.5168 4.7294h-2.4143l4.8066-6.1405-4.7625-6.1736h2.6128l3.4727 4.6523 3.4837-4.6523h2.4254l-4.8397 6.0634z"/>
  <path d="m152.41 83.232q-0.58428 0.15434-1.2788 0.25356-0.6835 0.09922-1.2237 0.09922-1.8852 0-2.8663-1.0142-0.98116-1.0142-0.98116-3.2522v-6.5484h-1.4001v-1.7418h1.4001v-3.5388h2.0726v3.5388h4.2774v1.7418h-4.2774v5.6114q0 0.97014 0.0441 1.5214 0.0441 0.54019 0.30868 1.0142 0.24253 0.44097 0.66146 0.65044 0.42994 0.19844 1.3009 0.19844 0.50711 0 1.0583-0.14332 0.55122-0.15434 0.79375-0.25356h0.11024z"/>
  <path d="m165.13 83.343h-2.0726v-1.367q-1.0473 0.82682-2.0064 1.2678t-2.1167 0.44097q-1.9403 0-3.0207-1.1796-1.0804-1.1906-1.0804-3.4837v-7.9926h2.0726v7.0115q0 0.93707 0.0882 1.6096 0.0882 0.66146 0.37483 1.1355 0.29765 0.48507 0.7717 0.70556 0.47405 0.22049 1.378 0.22049 0.80478 0 1.7529-0.41892 0.95911-0.41892 1.7859-1.0694v-9.1943h2.0726z"/>
  <path d="m176.89 73.288h-0.11024q-0.46302-0.11024-0.90399-0.15434-0.42995-0.05512-1.0253-0.05512-0.95911 0-1.8521 0.42995-0.89297 0.41892-1.7198 1.0914v8.7423h-2.0726v-12.314h2.0726v1.819q1.2347-0.99219 2.1718-1.4001 0.94809-0.41892 1.9292-0.41892 0.54019 0 0.78273 0.03307 0.24253 0.02205 0.7276 0.09922z"/>
  <path d="m189.15 77.4h-9.073q0 1.1355 0.34175 1.9844 0.34176 0.83785 0.93707 1.378 0.57327 0.52917 1.356 0.79375 0.79375 0.26458 1.7418 0.26458 1.2568 0 2.5246-0.49609 1.2788-0.50712 1.819-0.99219h0.11024v2.26q-1.0473 0.44097-2.1387 0.73863-1.0914 0.29766-2.2931 0.29766-3.0648 0-4.7846-1.6536-1.7198-1.6647-1.7198-4.7184 0-3.0207 1.6426-4.7956 1.6536-1.7749 4.3436-1.7749 2.4915 0 3.8365 1.4552 1.356 1.4552 1.356 4.1341zm-2.0174-1.5875q-0.011-1.6316-0.82682-2.5246-0.80478-0.89297-2.4584-0.89297-1.6647 0-2.6569 0.98116-0.98117 0.98116-1.1135 2.4364z"/>
  <path d="m94.482 106.88q0 0.95912-0.452 1.8962-0.44097 0.93707-1.2457 1.5875-0.88195 0.70556-2.0615 1.1024-1.1686 0.39687-2.8222 0.39687-1.7749 0-3.1971-0.33073-1.4111-0.33073-2.8773-0.98116v-2.734h0.15434q1.2457 1.0363 2.8773 1.5985t3.0648 0.56224q2.0285 0 3.153-0.76067 1.1355-0.76068 1.1355-2.0285 0-1.0914-0.54019-1.6096-0.52917-0.51814-1.6206-0.80477-0.82682-0.22049-1.797-0.36381-0.95912-0.14331-2.0395-0.3638-2.1828-0.46302-3.2411-1.5765-1.0473-1.1245-1.0473-2.9214 0-2.0615 1.7418-3.3734 1.7418-1.3229 4.4208-1.3229 1.7308 0 3.175 0.33073 1.4442 0.33073 2.5576 0.8158v2.5797h-0.15434q-0.93707-0.79375-2.4694-1.3119-1.5214-0.52917-3.1199-0.52917-1.7529 0-2.8222 0.7276-1.0583 0.7276-1.0583 1.8741 0 1.0253 0.52917 1.6096t1.8631 0.89297q0.70556 0.15434 2.0064 0.37482 1.3009 0.22049 2.2049 0.452 1.83 0.48507 2.7561 1.4662 0.92604 0.98116 0.92604 2.745z"/>
  <path d="m108.13 105.62h-9.073q0 1.1355 0.34175 1.9844 0.34175 0.83785 0.93707 1.378 0.57326 0.52917 1.356 0.79376 0.79375 0.26458 1.7418 0.26458 1.2568 0 2.5246-0.4961 1.2788-0.50711 1.819-0.99218h0.11024v2.26q-1.0473 0.44097-2.1387 0.73863-1.0914 0.29766-2.293 0.29766-3.0648 0-4.7846-1.6536-1.7198-1.6647-1.7198-4.7184 0-3.0207 1.6426-4.7956 1.6536-1.7749 4.3436-1.7749 2.4915 0 3.8365 1.4552 1.356 1.4552 1.356 4.1341zm-2.0174-1.5875q-0.011-1.6316-0.82683-2.5246-0.80477-0.89297-2.4584-0.89297-1.6647 0-2.6569 0.98116-0.98116 0.98117-1.1135 2.4364z"/>
  <path d="m113.37 111.56h-2.0726v-17.154h2.0726z"/>
  <path d="m127.78 105.62h-9.073q0 1.1355 0.34175 1.9844 0.34175 0.83785 0.93707 1.378 0.57326 0.52917 1.356 0.79376 0.79375 0.26458 1.7418 0.26458 1.2568 0 2.5246-0.4961 1.2788-0.50711 1.819-0.99218h0.11024v2.26q-1.0473 0.44097-2.1387 0.73863-1.0914 0.29766-2.2931 0.29766-3.0648 0-4.7846-1.6536-1.7198-1.6647-1.7198-4.7184 0-3.0207 1.6426-4.7956 1.6536-1.7749 4.3436-1.7749 2.4915 0 3.8365 1.4552 1.356 1.4552 1.356 4.1341zm-2.0174-1.5875q-0.011-1.6316-0.82682-2.5246-0.80478-0.89297-2.4584-0.89297-1.6647 0-2.6569 0.98116-0.98116 0.98117-1.1134 2.4364z"/>
  <path d="m140.02 110.79q-1.0363 0.4961-1.9734 0.7717-0.92604 0.27561-1.9734 0.27561-1.3339 0-2.4474-0.38585-1.1135-0.39687-1.9072-1.1906-0.80477-0.79376-1.2457-2.0064-0.44098-1.2127-0.44098-2.8332 0-3.0207 1.6536-4.7405 1.6647-1.7198 4.3877-1.7198 1.0583 0 2.0726 0.29766 1.0253 0.29766 1.8741 0.7276v2.3041h-0.11024q-0.94809-0.73863-1.9623-1.1355-1.0032-0.39688-1.9623-0.39688-1.7639 0-2.7892 1.1906-1.0142 1.1796-1.0142 3.4727 0 2.2269 0.99219 3.4286 1.0032 1.1906 2.8112 1.1906 0.62839 0 1.2788-0.16537 0.65044-0.16536 1.1686-0.42994 0.452-0.23151 0.84887-0.48507 0.39688-0.26459 0.62839-0.452h0.11024z"/>
  <path d="m149.07 111.45q-0.58429 0.15434-1.2788 0.25356-0.68351 0.0992-1.2237 0.0992-1.8852 0-2.8663-1.0142-0.98117-1.0142-0.98117-3.2522v-6.5484h-1.4001v-1.7418h1.4001v-3.5388h2.0726v3.5388h4.2774v1.7418h-4.2774v5.6114q0 0.97014 0.0441 1.5214 0.0441 0.54019 0.30868 1.0142 0.24254 0.44098 0.66146 0.65044 0.42995 0.19844 1.3009 0.19844 0.50712 0 1.0583-0.14332 0.55121-0.15434 0.79375-0.25356h0.11024z"/>
  <path d="m161.88 105.62h-9.073q0 1.1355 0.34176 1.9844 0.34175 0.83785 0.93707 1.378 0.57326 0.52917 1.356 0.79376 0.79375 0.26458 1.7418 0.26458 1.2568 0 2.5246-0.4961 1.2788-0.50711 1.819-0.99218h0.11024v2.26q-1.0473 0.44097-2.1387 0.73863-1.0914 0.29766-2.293 0.29766-3.0648 0-4.7846-1.6536-1.7198-1.6647-1.7198-4.7184 0-3.0207 1.6426-4.7956 1.6536-1.7749 4.3436-1.7749 2.4915 0 3.8365 1.4552 1.356 1.4552 1.356 4.1341zm-2.0174-1.5875q-0.011-1.6316-0.82683-2.5246-0.80477-0.89297-2.4584-0.89297-1.6647 0-2.6569 0.98116-0.98116 0.98117-1.1135 2.4364z"/>
  <path d="m175.01 111.56h-2.0726v-1.2898q-0.89297 0.7717-1.8631 1.2016t-2.1056 0.42995q-2.2049 0-3.5057-1.6978-1.2898-1.6977-1.2898-4.7074 0-1.5654 0.44097-2.7892 0.452-1.2237 1.2127-2.0836 0.74965-0.83785 1.7418-1.2788 1.0032-0.44097 2.0726-0.44097 0.97014 0 1.7198 0.20946 0.74966 0.19844 1.5765 0.62839v-5.3358h2.0726zm-2.0726-3.0317v-7.0666q-0.83785-0.37483-1.4993-0.51814-0.66145-0.14332-1.4442-0.14332-1.7418 0-2.712 1.2127-0.97014 1.2127-0.97014 3.4396 0 2.1938 0.74965 3.3404 0.74965 1.1355 2.4033 1.1355 0.88195 0 1.7859-0.38586 0.904-0.39687 1.6867-1.0142z"/>
 </g>
</svg>
