<svg width="1720" height="949" viewBox="0 0 1720 949" fill="none" xmlns="http://www.w3.org/2000/svg">
<g filter="url(#filter0_i_4_36)">
<circle cx="1309" cy="84" r="64" fill="url(#paint0_radial_4_36)"/>
</g>
<circle cx="1309" cy="84" r="63.5" stroke="url(#paint1_linear_4_36)" stroke-opacity="0.48"/>
<g filter="url(#filter1_i_4_36)">
<circle cx="318" cy="530" r="46" fill="url(#paint2_radial_4_36)"/>
</g>
<circle cx="318" cy="530" r="45.5" stroke="url(#paint3_linear_4_36)" stroke-opacity="0.48"/>
<g filter="url(#filter2_i_4_36)">
<circle cx="1679" cy="371" r="41" fill="url(#paint4_radial_4_36)"/>
</g>
<circle cx="1679" cy="371" r="40.5" stroke="url(#paint5_linear_4_36)" stroke-opacity="0.48"/>
<g filter="url(#filter3_i_4_36)">
<circle cx="531.5" cy="97.5" r="32.5" fill="url(#paint6_radial_4_36)"/>
</g>
<circle cx="531.5" cy="97.5" r="32" stroke="url(#paint7_linear_4_36)" stroke-opacity="0.48"/>
<g filter="url(#filter4_i_4_36)">
<circle cx="1411.5" cy="815.5" r="38.5" fill="url(#paint8_radial_4_36)"/>
</g>
<circle cx="1411.5" cy="815.5" r="38" stroke="url(#paint9_linear_4_36)" stroke-opacity="0.48"/>
<g filter="url(#filter5_i_4_36)">
<circle cx="235.5" cy="910.5" r="38.5" fill="url(#paint10_radial_4_36)"/>
</g>
<circle cx="235.5" cy="910.5" r="38" stroke="url(#paint11_linear_4_36)" stroke-opacity="0.48"/>
<g filter="url(#filter6_i_4_36)">
<path d="M99.0886 178.546L58.5199 140.66C55.1765 137.537 51.1059 135.297 46.6702 134.138C42.2346 132.98 37.5716 132.94 33.0965 134.021C28.6213 135.102 24.4728 137.272 21.0203 140.336C17.5679 143.401 14.9185 147.265 13.3082 151.585C11.6979 155.905 11.1765 160.547 11.7905 165.097C12.4046 169.648 14.1349 173.965 16.8276 177.666C19.5202 181.367 23.0916 184.335 27.2238 186.308C31.3559 188.28 35.9206 189.195 40.5115 188.972L52.1117 199.805C52.202 204.399 53.4266 208.891 55.6763 212.878C57.9261 216.865 61.1312 220.225 65.0064 222.659C68.8816 225.093 73.3067 226.525 77.8878 226.827C82.469 227.13 87.064 226.293 91.2639 224.393C95.4637 222.492 99.1382 219.586 101.96 215.934C104.782 212.281 106.664 207.995 107.439 203.457C108.213 198.919 107.856 194.271 106.399 189.924C104.943 185.578 102.431 181.669 99.0886 178.546ZM49.1298 173.076C48.7497 173.483 48.2249 173.723 47.6708 173.745C47.1168 173.766 46.5789 173.567 46.1755 173.19L39.5845 167.035L33.3735 173.686C32.9934 174.093 32.4686 174.334 31.9146 174.355C31.3605 174.376 30.8226 174.177 30.4192 173.8L27.3772 170.959C26.9739 170.583 26.738 170.06 26.7215 169.505C26.7051 168.951 26.9094 168.411 27.2896 168.004L33.5005 161.353L26.9096 155.198C26.5062 154.821 26.2703 154.298 26.2538 153.744C26.2374 153.19 26.4417 152.65 26.8219 152.243L29.6885 149.173C30.0686 148.766 30.5934 148.526 31.1475 148.504C31.7015 148.483 32.2394 148.682 32.6428 149.059L39.2338 155.214L45.4447 148.563C45.8249 148.156 46.3497 147.915 46.9037 147.894C47.4578 147.872 47.9956 148.072 48.399 148.449L51.441 151.29C51.8444 151.666 52.0803 152.189 52.0967 152.744C52.1132 153.298 51.9089 153.838 51.5287 154.245L45.3177 160.896L51.9087 167.051C52.3121 167.427 52.548 167.95 52.5644 168.505C52.5809 169.059 52.3766 169.599 51.9964 170.006L49.1298 173.076ZM67.4302 208.363C66.4274 207.427 65.7274 206.211 65.4186 204.871C65.1098 203.53 65.2062 202.124 65.6955 200.831C66.1847 199.538 67.0449 198.415 68.1674 197.606C69.2898 196.796 70.6239 196.335 72.0011 196.282C73.3784 196.228 74.7368 196.585 75.9046 197.306C77.0724 198.027 77.9972 199.08 78.562 200.333C79.1269 201.585 79.3063 202.98 79.0777 204.342C78.8491 205.703 78.2228 206.97 77.2778 207.982C76.0107 209.339 74.2613 210.141 72.4145 210.213C70.5677 210.284 68.7748 209.619 67.4302 208.363ZM87.0086 203.66C86.0058 202.724 85.3058 201.508 84.997 200.168C84.6883 198.827 84.7846 197.421 85.2739 196.128C85.7631 194.835 86.6234 193.712 87.7458 192.903C88.8682 192.093 90.2023 191.632 91.5796 191.579C92.9568 191.525 94.3152 191.882 95.483 192.603C96.6509 193.324 97.5757 194.377 98.1405 195.63C98.7053 196.882 98.8847 198.277 98.6561 199.639C98.4276 201 97.8012 202.267 96.8563 203.279C95.5891 204.636 93.8398 205.438 91.993 205.51C90.1462 205.581 88.3532 204.916 87.0086 203.66Z" fill="url(#paint12_linear_4_36)" fill-opacity="0.6"/>
</g>
<path d="M58.1785 141.026L58.1786 141.026L98.7473 178.911C98.7473 178.911 98.7474 178.911 98.7474 178.912C102.029 181.978 104.495 185.816 105.925 190.083C107.356 194.351 107.707 198.916 106.946 203.373C106.185 207.83 104.337 212.04 101.565 215.628C98.7925 219.216 95.183 222.07 91.0577 223.937C86.9324 225.804 82.4195 226.625 77.9208 226.328C73.4221 226.031 69.0771 224.625 65.2723 222.236C61.4675 219.846 58.3207 216.547 56.1118 212.632C53.9029 208.717 52.7003 204.307 52.6116 199.795L52.6074 199.583L52.4529 199.439L40.8528 188.606L40.6983 188.462L40.4872 188.472C35.9786 188.692 31.4963 187.793 27.4392 185.857C23.382 183.92 19.8756 181.005 17.2319 177.372C14.5882 173.738 12.889 169.499 12.286 165.03C11.6831 160.562 12.195 156.003 13.7767 151.76C15.3584 147.516 17.9608 143.72 21.3522 140.71C24.7437 137.7 28.8185 135.569 33.2139 134.507C37.6092 133.445 42.1884 133.485 46.5439 134.622C50.8993 135.76 54.8961 137.959 58.1785 141.026ZM47.6902 174.244C48.3766 174.218 49.0256 173.92 49.4952 173.417L52.3619 170.347C52.8315 169.844 53.0846 169.176 53.0642 168.49C53.0438 167.803 52.7514 167.154 52.25 166.685L46.0244 160.871L51.8942 154.586C52.3638 154.083 52.6169 153.415 52.5965 152.729C52.5761 152.042 52.2837 151.392 51.7823 150.924L48.7403 148.083C48.2389 147.615 47.571 147.368 46.8844 147.394C46.1979 147.421 45.549 147.719 45.0793 148.222L39.2096 154.507L32.984 148.694C32.4826 148.225 31.8148 147.978 31.1281 148.004C30.4417 148.031 29.7927 148.329 29.323 148.832L26.4564 151.902C25.9868 152.405 25.7337 153.072 25.7541 153.759C25.7745 154.446 26.0669 155.095 26.5683 155.564L32.7938 161.377L26.9241 167.663C26.4545 168.166 26.2014 168.834 26.2218 169.52C26.2421 170.207 26.5346 170.857 27.036 171.325L30.078 174.166C30.5794 174.634 31.2472 174.881 31.9339 174.855C32.6203 174.828 33.2693 174.53 33.739 174.027L39.6087 167.742L45.8343 173.555C46.3356 174.024 47.0035 174.271 47.6902 174.244ZM64.9314 204.983C65.2624 206.42 66.0131 207.724 67.0889 208.729C68.5315 210.076 70.4545 210.789 72.4339 210.712C74.4131 210.636 76.2866 209.776 77.6433 208.323C78.655 207.24 79.3259 205.883 79.5708 204.425C79.8157 202.966 79.6236 201.47 79.0178 200.127C78.4121 198.784 77.4201 197.654 76.1673 196.88C74.9145 196.107 73.4579 195.725 71.9818 195.782C70.5058 195.839 69.0767 196.333 67.8748 197.2C66.673 198.067 65.7518 199.269 65.2278 200.654C64.7038 202.039 64.6003 203.545 64.9314 204.983ZM84.5098 200.28C84.8408 201.717 85.5916 203.021 86.6673 204.026C88.1099 205.373 90.0329 206.086 92.0123 206.009C93.9915 205.933 95.865 205.073 97.2217 203.62C98.2334 202.537 98.9043 201.18 99.1492 199.722C99.3941 198.263 99.202 196.767 98.5963 195.424C97.9905 194.081 96.9985 192.951 95.7457 192.177C94.493 191.404 93.0363 191.022 91.5602 191.079C90.0842 191.136 88.6551 191.63 87.4532 192.497C86.2514 193.364 85.3302 194.566 84.8062 195.951C84.2822 197.336 84.1787 198.842 84.5098 200.28Z" stroke="url(#paint13_linear_4_36)"/>
<g filter="url(#filter7_i_4_36)">
<path d="M1390.38 492.153L1354.64 507.724C1351.7 509.008 1349.12 511.006 1347.13 513.541C1345.15 516.076 1343.82 519.07 1343.27 522.256C1342.72 525.442 1342.96 528.72 1343.97 531.801C1344.98 534.881 1346.73 537.666 1349.07 539.91C1351.4 542.153 1354.25 543.784 1357.35 544.659C1360.46 545.533 1363.72 545.623 1366.86 544.92C1369.99 544.217 1372.9 542.744 1375.33 540.632C1377.75 538.519 1379.62 535.833 1380.75 532.812L1390.97 528.359C1393.96 529.583 1397.19 530.048 1400.39 529.71C1403.59 529.373 1406.65 528.246 1409.3 526.427C1411.95 524.609 1414.11 522.157 1415.58 519.289C1417.05 516.421 1417.8 513.227 1417.74 509.99C1417.69 506.753 1416.84 503.574 1415.28 500.736C1413.71 497.898 1411.47 495.489 1408.76 493.723C1406.06 491.958 1402.96 490.891 1399.75 490.617C1396.55 490.342 1393.33 490.87 1390.38 492.153ZM1372.91 522.822C1373.07 523.18 1373.08 523.586 1372.94 523.949C1372.8 524.312 1372.52 524.603 1372.16 524.758L1366.36 527.288L1368.91 533.146C1369.07 533.505 1369.07 533.91 1368.93 534.273C1368.79 534.636 1368.51 534.927 1368.16 535.082L1365.48 536.25C1365.12 536.405 1364.72 536.411 1364.36 536.267C1364 536.122 1363.71 535.84 1363.55 535.482L1361 529.623L1355.19 532.153C1354.84 532.308 1354.43 532.314 1354.07 532.17C1353.71 532.025 1353.42 531.743 1353.26 531.385L1352.08 528.681C1351.93 528.322 1351.92 527.917 1352.06 527.554C1352.2 527.19 1352.48 526.9 1352.83 526.745L1358.64 524.215L1356.09 518.356C1355.93 517.998 1355.92 517.592 1356.06 517.229C1356.2 516.866 1356.48 516.575 1356.84 516.42L1359.52 515.253C1359.87 515.098 1360.28 515.092 1360.64 515.236C1361 515.38 1361.29 515.662 1361.45 516.021L1364 521.88L1369.81 519.35C1370.16 519.195 1370.56 519.189 1370.93 519.333C1371.29 519.477 1371.58 519.759 1371.74 520.118L1372.91 522.822ZM1400.76 520.876C1399.88 521.261 1398.9 521.373 1397.95 521.198C1397 521.022 1396.12 520.568 1395.42 519.892C1394.73 519.216 1394.24 518.348 1394.03 517.399C1393.83 516.449 1393.9 515.461 1394.25 514.559C1394.6 513.656 1395.21 512.88 1396 512.329C1396.79 511.777 1397.73 511.475 1398.69 511.461C1399.66 511.446 1400.61 511.72 1401.42 512.247C1402.23 512.775 1402.88 513.532 1403.26 514.423C1403.78 515.618 1403.81 516.97 1403.34 518.18C1402.88 519.39 1401.95 520.36 1400.76 520.876ZM1403.19 506.946C1402.31 507.331 1401.33 507.443 1400.38 507.268C1399.43 507.093 1398.55 506.638 1397.86 505.962C1397.16 505.286 1396.68 504.418 1396.47 503.469C1396.26 502.52 1396.33 501.531 1396.68 500.629C1397.03 499.726 1397.64 498.95 1398.43 498.399C1399.22 497.848 1400.16 497.546 1401.13 497.531C1402.09 497.517 1403.04 497.79 1403.85 498.318C1404.67 498.845 1405.31 499.602 1405.7 500.493C1406.22 501.689 1406.25 503.04 1405.78 504.25C1405.31 505.46 1404.38 506.43 1403.19 506.946Z" fill="url(#paint14_linear_4_36)" fill-opacity="0.6"/>
</g>
<path d="M1354.84 508.183L1354.84 508.183L1390.58 492.611C1390.58 492.611 1390.58 492.611 1390.58 492.611C1393.45 491.362 1396.59 490.848 1399.71 491.115C1402.84 491.382 1405.85 492.422 1408.49 494.142C1411.13 495.863 1413.31 498.211 1414.84 500.977C1416.37 503.744 1417.19 506.843 1417.24 509.998C1417.29 513.153 1416.57 516.266 1415.13 519.061C1413.7 521.855 1411.6 524.244 1409.02 526.015C1406.43 527.786 1403.45 528.885 1400.34 529.213C1397.22 529.542 1394.07 529.09 1391.16 527.897L1390.96 527.817L1390.77 527.901L1380.55 532.354L1380.36 532.438L1380.28 532.636C1379.18 535.58 1377.36 538.197 1375 540.255C1372.64 542.313 1369.8 543.748 1366.75 544.432C1363.69 545.116 1360.51 545.029 1357.49 544.177C1354.46 543.326 1351.69 541.736 1349.41 539.549C1347.14 537.363 1345.43 534.647 1344.45 531.645C1343.46 528.642 1343.23 525.446 1343.76 522.341C1344.3 519.236 1345.59 516.319 1347.53 513.849C1349.46 511.379 1351.97 509.433 1354.84 508.183ZM1373.4 524.13C1373.59 523.643 1373.58 523.101 1373.37 522.622L1372.19 519.918C1371.98 519.439 1371.6 519.061 1371.11 518.868C1370.63 518.675 1370.08 518.683 1369.61 518.891L1364.26 521.221L1361.91 515.821C1361.7 515.342 1361.31 514.964 1360.82 514.771C1360.34 514.578 1359.8 514.586 1359.32 514.794L1356.64 515.962C1356.16 516.17 1355.79 516.562 1355.6 517.048C1355.41 517.535 1355.42 518.077 1355.63 518.556L1357.98 523.956L1352.64 526.286C1352.16 526.495 1351.78 526.886 1351.59 527.373C1351.41 527.859 1351.42 528.401 1351.63 528.88L1352.8 531.584C1353.01 532.063 1353.4 532.441 1353.89 532.634C1354.37 532.827 1354.91 532.819 1355.39 532.611L1360.74 530.281L1363.09 535.681C1363.3 536.16 1363.69 536.538 1364.17 536.731C1364.66 536.924 1365.2 536.916 1365.68 536.708L1368.36 535.54C1368.84 535.332 1369.21 534.941 1369.4 534.454C1369.59 533.967 1369.58 533.425 1369.37 532.947L1367.01 527.546L1372.36 525.216C1372.84 525.008 1373.21 524.616 1373.4 524.13ZM1397.86 521.689C1398.91 521.882 1399.99 521.759 1400.96 521.334C1402.27 520.765 1403.29 519.694 1403.81 518.361C1404.33 517.027 1404.3 515.539 1403.72 514.223C1403.29 513.242 1402.59 512.409 1401.69 511.828C1400.8 511.247 1399.75 510.945 1398.69 510.961C1397.62 510.977 1396.59 511.31 1395.71 511.919C1394.84 512.527 1394.17 513.383 1393.78 514.378C1393.4 515.372 1393.32 516.461 1393.55 517.506C1393.78 518.551 1394.31 519.506 1395.07 520.251C1395.84 520.995 1396.81 521.496 1397.86 521.689ZM1400.29 507.76C1401.34 507.953 1402.42 507.829 1403.39 507.405C1404.7 506.835 1405.73 505.765 1406.24 504.431C1406.76 503.097 1406.73 501.609 1406.16 500.294C1405.73 499.313 1405.02 498.479 1404.12 497.898C1403.23 497.317 1402.18 497.015 1401.12 497.031C1400.05 497.047 1399.02 497.38 1398.15 497.989C1397.27 498.597 1396.6 499.453 1396.22 500.448C1395.83 501.443 1395.75 502.531 1395.98 503.576C1396.21 504.621 1396.74 505.576 1397.51 506.321C1398.28 507.065 1399.24 507.566 1400.29 507.76Z" stroke="url(#paint15_linear_4_36)"/>
<g filter="url(#filter8_i_4_36)">
<path d="M754.006 787.768L704.007 774.371C699.886 773.266 695.554 773.207 691.395 774.198C687.237 775.189 683.381 777.2 680.172 780.052C676.963 782.904 674.499 786.508 673.001 790.544C671.503 794.579 671.017 798.921 671.585 803.183C672.153 807.444 673.759 811.493 676.259 814.969C678.76 818.445 682.077 821.24 685.915 823.106C689.754 824.971 693.995 825.849 698.26 825.661C702.526 825.473 706.684 824.225 710.364 822.028L724.661 825.859C726.75 829.601 729.726 832.761 733.326 835.056C736.926 837.352 741.037 838.712 745.293 839.017C749.55 839.321 753.819 838.559 757.722 836.8C761.625 835.041 765.041 832.338 767.664 828.932C770.288 825.527 772.038 821.524 772.76 817.281C773.481 813.038 773.151 808.685 771.799 804.611C770.447 800.536 768.116 796.867 765.011 793.928C761.907 790.989 758.126 788.873 754.006 787.768ZM710.489 805.167C710.355 805.668 710.028 806.097 709.582 806.357C709.135 806.618 708.605 806.689 708.108 806.556L699.985 804.38L697.788 812.576C697.654 813.078 697.328 813.506 696.881 813.767C696.434 814.027 695.904 814.099 695.407 813.966L691.658 812.961C691.161 812.828 690.737 812.501 690.481 812.052C690.224 811.603 690.156 811.069 690.29 810.567L692.487 802.37L684.364 800.194C683.866 800.061 683.443 799.734 683.187 799.285C682.93 798.836 682.861 798.302 682.996 797.8L684.01 794.017C684.144 793.515 684.47 793.087 684.917 792.826C685.364 792.566 685.894 792.494 686.391 792.628L694.514 794.804L696.71 786.607C696.845 786.106 697.171 785.677 697.618 785.417C698.064 785.156 698.595 785.085 699.092 785.218L702.841 786.223C703.338 786.356 703.761 786.683 704.018 787.132C704.274 787.581 704.343 788.115 704.208 788.616L702.012 796.813L710.135 798.99C710.632 799.123 711.056 799.45 711.312 799.899C711.569 800.348 711.637 800.882 711.503 801.384L710.489 805.167ZM741.021 826.188C739.785 825.857 738.676 825.163 737.834 824.195C736.992 823.227 736.455 822.027 736.291 820.749C736.127 819.47 736.343 818.169 736.912 817.01C737.48 815.852 738.377 814.888 739.487 814.24C740.597 813.593 741.871 813.29 743.148 813.372C744.426 813.453 745.649 813.915 746.662 814.698C747.676 815.481 748.436 816.551 748.844 817.772C749.253 818.993 749.293 820.31 748.959 821.557C748.511 823.229 747.423 824.656 745.934 825.525C744.445 826.393 742.678 826.632 741.021 826.188ZM755.073 813.734C753.837 813.403 752.728 812.709 751.887 811.741C751.045 810.773 750.508 809.574 750.343 808.295C750.179 807.016 750.395 805.715 750.964 804.557C751.533 803.398 752.429 802.434 753.539 801.787C754.649 801.139 755.923 800.837 757.201 800.918C758.478 801 759.701 801.461 760.715 802.244C761.729 803.028 762.488 804.097 762.897 805.318C763.306 806.539 763.345 807.856 763.011 809.103C762.563 810.775 761.475 812.203 759.986 813.071C758.498 813.94 756.73 814.178 755.073 813.734Z" fill="url(#paint16_linear_4_36)" fill-opacity="0.6"/>
</g>
<path d="M703.878 774.854L703.878 774.854L753.876 788.251C753.877 788.251 753.877 788.251 753.877 788.251C757.916 789.335 761.623 791.41 764.667 794.291C767.712 797.173 769.999 800.772 771.325 804.768C772.651 808.765 772.974 813.034 772.267 817.197C771.559 821.36 769.842 825.287 767.268 828.627C764.695 831.968 761.345 834.619 757.517 836.344C753.689 838.07 749.502 838.816 745.329 838.518C741.155 838.22 737.125 836.886 733.595 834.635C730.065 832.384 727.146 829.285 725.098 825.615L724.995 825.431L724.79 825.376L710.494 821.545L710.29 821.49L710.108 821.599C706.499 823.753 702.421 824.977 698.238 825.161C694.056 825.346 689.897 824.485 686.134 822.656C682.37 820.827 679.117 818.086 676.665 814.677C674.213 811.268 672.638 807.297 672.081 803.117C671.523 798.936 672 794.677 673.47 790.718C674.94 786.758 677.356 783.223 680.504 780.426C683.652 777.628 687.433 775.656 691.511 774.684C695.589 773.712 699.837 773.771 703.878 774.854ZM709.834 806.789C710.395 806.462 710.804 805.925 710.972 805.296L711.986 801.513C712.154 800.885 712.069 800.215 711.746 799.651C711.424 799.087 710.891 798.675 710.265 798.507L702.625 796.46L704.691 788.746C704.86 788.118 704.774 787.448 704.452 786.884C704.13 786.32 703.597 785.908 702.97 785.74L699.221 784.735C698.594 784.567 697.927 784.658 697.366 784.985C696.805 785.312 696.396 785.85 696.227 786.478L694.16 794.192L686.52 792.145C685.894 791.977 685.226 792.067 684.665 792.395C684.104 792.722 683.695 793.259 683.527 793.887L682.513 797.671C682.345 798.299 682.43 798.969 682.752 799.533C683.075 800.097 683.608 800.509 684.234 800.677L691.874 802.724L689.807 810.438C689.639 811.066 689.725 811.736 690.047 812.3C690.369 812.864 690.902 813.276 691.529 813.444L695.278 814.449C695.904 814.616 696.572 814.526 697.133 814.199C697.694 813.871 698.103 813.334 698.271 812.706L700.338 804.992L707.978 807.039C708.605 807.207 709.272 807.117 709.834 806.789ZM737.457 824.523C738.364 825.566 739.559 826.314 740.892 826.671C742.678 827.149 744.583 826.892 746.186 825.957C747.789 825.022 748.96 823.485 749.442 821.686C749.801 820.345 749.759 818.927 749.319 817.613C748.879 816.299 748.061 815.146 746.968 814.302C745.875 813.458 744.557 812.961 743.18 812.873C741.803 812.785 740.43 813.111 739.235 813.808C738.039 814.506 737.075 815.544 736.463 816.79C735.851 818.036 735.618 819.436 735.795 820.812C735.972 822.189 736.55 823.48 737.457 824.523ZM751.509 812.069C752.416 813.113 753.612 813.86 754.944 814.217C756.731 814.696 758.635 814.438 760.238 813.503C761.841 812.568 763.012 811.032 763.494 809.233C763.854 807.891 763.811 806.473 763.371 805.159C762.931 803.845 762.113 802.693 761.02 801.849C759.928 801.005 758.609 800.507 757.233 800.419C755.856 800.331 754.483 800.657 753.287 801.355C752.092 802.052 751.127 803.09 750.515 804.336C749.903 805.583 749.671 806.982 749.847 808.359C750.024 809.735 750.602 811.026 751.509 812.069Z" stroke="url(#paint17_linear_4_36)"/>
<g filter="url(#filter9_i_4_36)">
<path d="M882.677 177.495L825.178 173.539C820.439 173.212 815.692 174.073 811.359 176.044C807.027 178.016 803.243 181.037 800.346 184.839C797.448 188.642 795.526 193.106 794.751 197.836C793.977 202.567 794.373 207.415 795.905 211.951C797.436 216.486 800.056 220.567 803.531 223.832C807.006 227.096 811.228 229.441 815.821 230.66C820.414 231.878 825.236 231.931 829.857 230.814C834.478 229.697 838.755 227.445 842.308 224.258L858.749 225.389C861.831 229.032 865.759 231.849 870.183 233.588C874.607 235.327 879.39 235.936 884.106 235.359C888.822 234.781 893.326 233.037 897.215 230.281C901.104 227.524 904.258 223.841 906.398 219.559C908.537 215.277 909.594 210.529 909.476 205.738C909.358 200.947 908.067 196.261 905.719 192.098C903.371 187.934 900.039 184.422 896.019 181.875C891.999 179.327 887.415 177.822 882.677 177.495ZM838.841 205.806C838.802 206.383 838.536 206.92 838.104 207.301C837.672 207.681 837.108 207.872 836.536 207.833L827.194 207.19L826.546 216.616C826.506 217.193 826.241 217.731 825.808 218.111C825.376 218.491 824.812 218.683 824.24 218.643L819.929 218.347C819.357 218.307 818.825 218.041 818.448 217.605C818.072 217.169 817.883 216.6 817.923 216.023L818.571 206.597L809.23 205.954C808.658 205.915 808.125 205.648 807.749 205.212C807.373 204.776 807.184 204.207 807.224 203.63L807.523 199.28C807.563 198.703 807.828 198.165 808.26 197.785C808.693 197.405 809.257 197.213 809.828 197.253L819.17 197.896L819.819 188.469C819.858 187.892 820.123 187.355 820.556 186.974C820.988 186.594 821.552 186.403 822.124 186.442L826.435 186.739C827.007 186.778 827.54 187.045 827.916 187.481C828.292 187.917 828.481 188.486 828.442 189.062L827.793 198.489L837.135 199.132C837.706 199.171 838.239 199.438 838.615 199.874C838.991 200.309 839.18 200.878 839.141 201.455L838.841 205.806ZM876.697 222.253C875.275 222.155 873.915 221.634 872.788 220.756C871.662 219.878 870.818 218.682 870.366 217.32C869.913 215.957 869.871 214.49 870.245 213.102C870.619 211.715 871.392 210.47 872.467 209.525C873.542 208.58 874.87 207.977 876.283 207.794C877.696 207.61 879.131 207.853 880.406 208.492C881.682 209.131 882.74 210.138 883.447 211.384C884.155 212.631 884.48 214.062 884.381 215.496C884.249 217.419 883.365 219.211 881.924 220.479C880.483 221.746 878.602 222.384 876.697 222.253ZM889.391 205.641C887.97 205.544 886.61 205.023 885.483 204.145C884.356 203.267 883.513 202.071 883.06 200.708C882.608 199.346 882.566 197.878 882.94 196.491C883.314 195.103 884.087 193.858 885.162 192.913C886.237 191.968 887.564 191.366 888.978 191.182C890.391 190.998 891.826 191.241 893.101 191.88C894.376 192.52 895.435 193.526 896.142 194.773C896.85 196.02 897.175 197.451 897.076 198.885C896.944 200.808 896.06 202.6 894.619 203.867C893.177 205.134 891.297 205.772 889.391 205.641Z" fill="url(#paint18_linear_4_36)" fill-opacity="0.6"/>
</g>
<path d="M825.143 174.037L825.143 174.037L882.642 177.994C882.642 177.994 882.642 177.994 882.642 177.994C887.298 178.315 891.801 179.794 895.751 182.297C899.701 184.8 902.976 188.251 905.284 192.343C907.591 196.435 908.86 201.041 908.976 205.75C909.093 210.46 908.053 215.127 905.95 219.335C903.848 223.544 900.747 227.164 896.926 229.873C893.104 232.581 888.679 234.295 884.046 234.862C879.412 235.429 874.713 234.832 870.366 233.123C866.019 231.414 862.16 228.646 859.131 225.066L858.994 224.905L858.783 224.89L842.342 223.759L842.131 223.745L841.974 223.886C838.483 227.018 834.28 229.23 829.74 230.328C825.199 231.425 820.462 231.373 815.949 230.176C811.436 228.979 807.288 226.675 803.873 223.467C800.459 220.26 797.884 216.248 796.378 211.791C794.873 207.333 794.483 202.567 795.245 197.917C796.007 193.268 797.895 188.879 800.743 185.143C803.591 181.406 807.309 178.437 811.566 176.499C815.823 174.562 820.487 173.716 825.143 174.037ZM819.32 188.435L818.706 197.362L809.863 196.754C809.157 196.705 808.462 196.942 807.93 197.41C807.398 197.877 807.073 198.538 807.024 199.245L806.725 203.596C806.676 204.304 806.908 205.003 807.371 205.539C807.834 206.075 808.49 206.404 809.195 206.453L818.038 207.061L817.424 215.989C817.375 216.697 817.607 217.396 818.07 217.932C818.533 218.468 819.189 218.797 819.894 218.846L824.206 219.142C824.911 219.191 825.607 218.954 826.139 218.487C826.67 218.019 826.996 217.359 827.045 216.651L827.659 207.723L836.501 208.332C837.207 208.38 837.902 208.144 838.434 207.676C838.966 207.209 839.291 206.548 839.34 205.84L839.639 201.49C839.688 200.782 839.456 200.083 838.993 199.547C838.531 199.011 837.874 198.681 837.169 198.633L828.326 198.024L828.94 189.097C828.989 188.389 828.757 187.69 828.294 187.154C827.832 186.618 827.175 186.289 826.47 186.24L822.158 185.943C821.453 185.895 820.758 186.131 820.226 186.599C819.694 187.067 819.368 187.727 819.32 188.435ZM872.481 221.15C873.686 222.09 875.141 222.647 876.662 222.752C878.702 222.892 880.713 222.209 882.254 220.854C883.795 219.499 884.739 217.584 884.88 215.53C884.986 213.999 884.638 212.47 883.882 211.138C883.126 209.805 881.995 208.729 880.63 208.045C879.266 207.361 877.731 207.101 876.218 207.298C874.706 207.494 873.286 208.139 872.137 209.149C870.988 210.16 870.162 211.49 869.762 212.972C869.363 214.454 869.408 216.022 869.891 217.477C870.375 218.933 871.276 220.211 872.481 221.15ZM885.176 204.539C886.381 205.478 887.836 206.035 889.357 206.14C891.396 206.28 893.408 205.597 894.949 204.243C896.489 202.888 897.433 200.973 897.575 198.919C897.68 197.387 897.333 195.858 896.577 194.526C895.821 193.194 894.689 192.117 893.325 191.433C891.961 190.75 890.425 190.489 888.913 190.686C887.401 190.883 885.981 191.528 884.832 192.538C883.683 193.548 882.857 194.878 882.457 196.361C882.057 197.843 882.102 199.41 882.586 200.866C883.07 202.322 883.971 203.6 885.176 204.539Z" stroke="url(#paint19_linear_4_36)"/>
<g filter="url(#filter10_i_4_36)">
<path d="M899.098 484.456L925.063 550.553L854.839 539.991L899.098 484.456Z" fill="url(#paint20_linear_4_36)"/>
</g>
<path d="M855.77 539.625L898.949 485.445L924.281 549.93L855.77 539.625Z" stroke="url(#paint21_linear_4_36)" stroke-opacity="0.48"/>
<g filter="url(#filter11_i_4_36)">
<path d="M96.3015 360.472L114.174 405.967L65.8375 398.697L96.3015 360.472Z" fill="url(#paint22_linear_4_36)"/>
</g>
<path d="M66.7683 398.331L96.1528 361.461L113.391 405.344L66.7683 398.331Z" stroke="url(#paint23_linear_4_36)" stroke-opacity="0.48"/>
<g filter="url(#filter12_i_4_36)">
<path d="M1607.42 17.3447L1652.16 37.0335L1612.74 65.9342L1607.42 17.3447Z" fill="url(#paint24_linear_4_36)"/>
</g>
<path d="M1613.14 65.0189L1608.01 18.1512L1651.16 37.1423L1613.14 65.0189Z" stroke="url(#paint25_linear_4_36)" stroke-opacity="0.48"/>
<defs>
<filter id="filter0_i_4_36" x="1245" y="12" width="128" height="136" filterUnits="userSpaceOnUse" color-interpolation-filters="sRGB">
<feFlood flood-opacity="0" result="BackgroundImageFix"/>
<feBlend mode="normal" in="SourceGraphic" in2="BackgroundImageFix" result="shape"/>
<feColorMatrix in="SourceAlpha" type="matrix" values="0 0 0 0 0 0 0 0 0 0 0 0 0 0 0 0 0 0 127 0" result="hardAlpha"/>
<feOffset dy="-11"/>
<feGaussianBlur stdDeviation="4"/>
<feComposite in2="hardAlpha" operator="arithmetic" k2="-1" k3="1"/>
<feColorMatrix type="matrix" values="0 0 0 0 0 0 0 0 0 0 0 0 0 0 0 0 0 0 0.25 0"/>
<feBlend mode="normal" in2="shape" result="effect1_innerShadow_4_36"/>
</filter>
<filter id="filter1_i_4_36" x="272" y="476" width="92" height="100" filterUnits="userSpaceOnUse" color-interpolation-filters="sRGB">
<feFlood flood-opacity="0" result="BackgroundImageFix"/>
<feBlend mode="normal" in="SourceGraphic" in2="BackgroundImageFix" result="shape"/>
<feColorMatrix in="SourceAlpha" type="matrix" values="0 0 0 0 0 0 0 0 0 0 0 0 0 0 0 0 0 0 127 0" result="hardAlpha"/>
<feOffset dy="-11"/>
<feGaussianBlur stdDeviation="4"/>
<feComposite in2="hardAlpha" operator="arithmetic" k2="-1" k3="1"/>
<feColorMatrix type="matrix" values="0 0 0 0 0 0 0 0 0 0 0 0 0 0 0 0 0 0 0.25 0"/>
<feBlend mode="normal" in2="shape" result="effect1_innerShadow_4_36"/>
</filter>
<filter id="filter2_i_4_36" x="1638" y="322" width="82" height="90" filterUnits="userSpaceOnUse" color-interpolation-filters="sRGB">
<feFlood flood-opacity="0" result="BackgroundImageFix"/>
<feBlend mode="normal" in="SourceGraphic" in2="BackgroundImageFix" result="shape"/>
<feColorMatrix in="SourceAlpha" type="matrix" values="0 0 0 0 0 0 0 0 0 0 0 0 0 0 0 0 0 0 127 0" result="hardAlpha"/>
<feOffset dy="-11"/>
<feGaussianBlur stdDeviation="4"/>
<feComposite in2="hardAlpha" operator="arithmetic" k2="-1" k3="1"/>
<feColorMatrix type="matrix" values="0 0 0 0 0 0 0 0 0 0 0 0 0 0 0 0 0 0 0.25 0"/>
<feBlend mode="normal" in2="shape" result="effect1_innerShadow_4_36"/>
</filter>
<filter id="filter3_i_4_36" x="499" y="57" width="65" height="73" filterUnits="userSpaceOnUse" color-interpolation-filters="sRGB">
<feFlood flood-opacity="0" result="BackgroundImageFix"/>
<feBlend mode="normal" in="SourceGraphic" in2="BackgroundImageFix" result="shape"/>
<feColorMatrix in="SourceAlpha" type="matrix" values="0 0 0 0 0 0 0 0 0 0 0 0 0 0 0 0 0 0 127 0" result="hardAlpha"/>
<feOffset dy="-11"/>
<feGaussianBlur stdDeviation="4"/>
<feComposite in2="hardAlpha" operator="arithmetic" k2="-1" k3="1"/>
<feColorMatrix type="matrix" values="0 0 0 0 0 0 0 0 0 0 0 0 0 0 0 0 0 0 0.25 0"/>
<feBlend mode="normal" in2="shape" result="effect1_innerShadow_4_36"/>
</filter>
<filter id="filter4_i_4_36" x="1373" y="769" width="77" height="85" filterUnits="userSpaceOnUse" color-interpolation-filters="sRGB">
<feFlood flood-opacity="0" result="BackgroundImageFix"/>
<feBlend mode="normal" in="SourceGraphic" in2="BackgroundImageFix" result="shape"/>
<feColorMatrix in="SourceAlpha" type="matrix" values="0 0 0 0 0 0 0 0 0 0 0 0 0 0 0 0 0 0 127 0" result="hardAlpha"/>
<feOffset dy="-11"/>
<feGaussianBlur stdDeviation="4"/>
<feComposite in2="hardAlpha" operator="arithmetic" k2="-1" k3="1"/>
<feColorMatrix type="matrix" values="0 0 0 0 0 0 0 0 0 0 0 0 0 0 0 0 0 0 0.25 0"/>
<feBlend mode="normal" in2="shape" result="effect1_innerShadow_4_36"/>
</filter>
<filter id="filter5_i_4_36" x="197" y="864" width="77" height="85" filterUnits="userSpaceOnUse" color-interpolation-filters="sRGB">
<feFlood flood-opacity="0" result="BackgroundImageFix"/>
<feBlend mode="normal" in="SourceGraphic" in2="BackgroundImageFix" result="shape"/>
<feColorMatrix in="SourceAlpha" type="matrix" values="0 0 0 0 0 0 0 0 0 0 0 0 0 0 0 0 0 0 127 0" result="hardAlpha"/>
<feOffset dy="-11"/>
<feGaussianBlur stdDeviation="4"/>
<feComposite in2="hardAlpha" operator="arithmetic" k2="-1" k3="1"/>
<feColorMatrix type="matrix" values="0 0 0 0 0 0 0 0 0 0 0 0 0 0 0 0 0 0 0.25 0"/>
<feBlend mode="normal" in2="shape" result="effect1_innerShadow_4_36"/>
</filter>
<filter id="filter6_i_4_36" x="11.5405" y="133.239" width="96.2971" height="97.6487" filterUnits="userSpaceOnUse" color-interpolation-filters="sRGB">
<feFlood flood-opacity="0" result="BackgroundImageFix"/>
<feBlend mode="normal" in="SourceGraphic" in2="BackgroundImageFix" result="shape"/>
<feColorMatrix in="SourceAlpha" type="matrix" values="0 0 0 0 0 0 0 0 0 0 0 0 0 0 0 0 0 0 127 0" result="hardAlpha"/>
<feOffset dy="4"/>
<feGaussianBlur stdDeviation="2"/>
<feComposite in2="hardAlpha" operator="arithmetic" k2="-1" k3="1"/>
<feColorMatrix type="matrix" values="0 0 0 0 0 0 0 0 0 0 0 0 0 0 0 0 0 0 0.25 0"/>
<feBlend mode="normal" in2="shape" result="effect1_innerShadow_4_36"/>
</filter>
<filter id="filter7_i_4_36" x="1342.98" y="490.546" width="74.7643" height="58.8419" filterUnits="userSpaceOnUse" color-interpolation-filters="sRGB">
<feFlood flood-opacity="0" result="BackgroundImageFix"/>
<feBlend mode="normal" in="SourceGraphic" in2="BackgroundImageFix" result="shape"/>
<feColorMatrix in="SourceAlpha" type="matrix" values="0 0 0 0 0 0 0 0 0 0 0 0 0 0 0 0 0 0 127 0" result="hardAlpha"/>
<feOffset dy="4"/>
<feGaussianBlur stdDeviation="2"/>
<feComposite in2="hardAlpha" operator="arithmetic" k2="-1" k3="1"/>
<feColorMatrix type="matrix" values="0 0 0 0 0 0 0 0 0 0 0 0 0 0 0 0 0 0 0.25 0"/>
<feBlend mode="normal" in2="shape" result="effect1_innerShadow_4_36"/>
</filter>
<filter id="filter8_i_4_36" x="671.354" y="773.496" width="101.778" height="69.5859" filterUnits="userSpaceOnUse" color-interpolation-filters="sRGB">
<feFlood flood-opacity="0" result="BackgroundImageFix"/>
<feBlend mode="normal" in="SourceGraphic" in2="BackgroundImageFix" result="shape"/>
<feColorMatrix in="SourceAlpha" type="matrix" values="0 0 0 0 0 0 0 0 0 0 0 0 0 0 0 0 0 0 127 0" result="hardAlpha"/>
<feOffset dy="4"/>
<feGaussianBlur stdDeviation="2"/>
<feComposite in2="hardAlpha" operator="arithmetic" k2="-1" k3="1"/>
<feColorMatrix type="matrix" values="0 0 0 0 0 0 0 0 0 0 0 0 0 0 0 0 0 0 0.25 0"/>
<feBlend mode="normal" in2="shape" result="effect1_innerShadow_4_36"/>
</filter>
<filter id="filter9_i_4_36" x="794.366" y="173.471" width="115.119" height="66.099" filterUnits="userSpaceOnUse" color-interpolation-filters="sRGB">
<feFlood flood-opacity="0" result="BackgroundImageFix"/>
<feBlend mode="normal" in="SourceGraphic" in2="BackgroundImageFix" result="shape"/>
<feColorMatrix in="SourceAlpha" type="matrix" values="0 0 0 0 0 0 0 0 0 0 0 0 0 0 0 0 0 0 127 0" result="hardAlpha"/>
<feOffset dy="4"/>
<feGaussianBlur stdDeviation="2"/>
<feComposite in2="hardAlpha" operator="arithmetic" k2="-1" k3="1"/>
<feColorMatrix type="matrix" values="0 0 0 0 0 0 0 0 0 0 0 0 0 0 0 0 0 0 0.25 0"/>
<feBlend mode="normal" in2="shape" result="effect1_innerShadow_4_36"/>
</filter>
<filter id="filter10_i_4_36" x="854.839" y="484.456" width="70.2242" height="70.097" filterUnits="userSpaceOnUse" color-interpolation-filters="sRGB">
<feFlood flood-opacity="0" result="BackgroundImageFix"/>
<feBlend mode="normal" in="SourceGraphic" in2="BackgroundImageFix" result="shape"/>
<feColorMatrix in="SourceAlpha" type="matrix" values="0 0 0 0 0 0 0 0 0 0 0 0 0 0 0 0 0 0 127 0" result="hardAlpha"/>
<feOffset dy="4"/>
<feGaussianBlur stdDeviation="2"/>
<feComposite in2="hardAlpha" operator="arithmetic" k2="-1" k3="1"/>
<feColorMatrix type="matrix" values="0 0 0 0 0 0 0 0 0 0 0 0 0 0 0 0 0 0 0.25 0"/>
<feBlend mode="normal" in2="shape" result="effect1_innerShadow_4_36"/>
</filter>
<filter id="filter11_i_4_36" x="65.8375" y="360.472" width="48.336" height="49.4952" filterUnits="userSpaceOnUse" color-interpolation-filters="sRGB">
<feFlood flood-opacity="0" result="BackgroundImageFix"/>
<feBlend mode="normal" in="SourceGraphic" in2="BackgroundImageFix" result="shape"/>
<feColorMatrix in="SourceAlpha" type="matrix" values="0 0 0 0 0 0 0 0 0 0 0 0 0 0 0 0 0 0 127 0" result="hardAlpha"/>
<feOffset dy="4"/>
<feGaussianBlur stdDeviation="2"/>
<feComposite in2="hardAlpha" operator="arithmetic" k2="-1" k3="1"/>
<feColorMatrix type="matrix" values="0 0 0 0 0 0 0 0 0 0 0 0 0 0 0 0 0 0 0.25 0"/>
<feBlend mode="normal" in2="shape" result="effect1_innerShadow_4_36"/>
</filter>
<filter id="filter12_i_4_36" x="1607.42" y="17.3447" width="44.739" height="52.5894" filterUnits="userSpaceOnUse" color-interpolation-filters="sRGB">
<feFlood flood-opacity="0" result="BackgroundImageFix"/>
<feBlend mode="normal" in="SourceGraphic" in2="BackgroundImageFix" result="shape"/>
<feColorMatrix in="SourceAlpha" type="matrix" values="0 0 0 0 0 0 0 0 0 0 0 0 0 0 0 0 0 0 127 0" result="hardAlpha"/>
<feOffset dy="4"/>
<feGaussianBlur stdDeviation="2"/>
<feComposite in2="hardAlpha" operator="arithmetic" k2="-1" k3="1"/>
<feColorMatrix type="matrix" values="0 0 0 0 0 0 0 0 0 0 0 0 0 0 0 0 0 0 0.25 0"/>
<feBlend mode="normal" in2="shape" result="effect1_innerShadow_4_36"/>
</filter>
<radialGradient id="paint0_radial_4_36" cx="0" cy="0" r="1" gradientUnits="userSpaceOnUse" gradientTransform="translate(1321.16 52.64) rotate(97.267) scale(96.1322)">
<stop stop-color="#273B4E"/>
<stop offset="1" stop-color="#222632"/>
</radialGradient>
<linearGradient id="paint1_linear_4_36" x1="1395.5" y1="-33" x2="1281.5" y2="148" gradientUnits="userSpaceOnUse">
<stop stop-color="#0894D0"/>
<stop offset="1" stop-color="#0894D0" stop-opacity="0"/>
</linearGradient>
<radialGradient id="paint2_radial_4_36" cx="0" cy="0" r="1" gradientUnits="userSpaceOnUse" gradientTransform="translate(326.74 507.46) rotate(97.267) scale(69.095)">
<stop stop-color="#273B4E"/>
<stop offset="1" stop-color="#222632"/>
</radialGradient>
<linearGradient id="paint3_linear_4_36" x1="380.172" y1="445.906" x2="298.234" y2="576" gradientUnits="userSpaceOnUse">
<stop stop-color="#0894D0"/>
<stop offset="1" stop-color="#0894D0" stop-opacity="0"/>
</linearGradient>
<radialGradient id="paint4_radial_4_36" cx="0" cy="0" r="1" gradientUnits="userSpaceOnUse" gradientTransform="translate(1686.79 350.91) rotate(97.267) scale(61.5847)">
<stop stop-color="#273B4E"/>
<stop offset="1" stop-color="#222632"/>
</radialGradient>
<linearGradient id="paint5_linear_4_36" x1="1734.41" y1="296.047" x2="1661.38" y2="412" gradientUnits="userSpaceOnUse">
<stop stop-color="#0894D0"/>
<stop offset="1" stop-color="#0894D0" stop-opacity="0"/>
</linearGradient>
<radialGradient id="paint6_radial_4_36" cx="0" cy="0" r="1" gradientUnits="userSpaceOnUse" gradientTransform="translate(537.675 81.575) rotate(97.267) scale(48.8171)">
<stop stop-color="#273B4E"/>
<stop offset="1" stop-color="#222632"/>
</radialGradient>
<linearGradient id="paint7_linear_4_36" x1="575.426" y1="38.0859" x2="517.535" y2="130" gradientUnits="userSpaceOnUse">
<stop stop-color="#0894D0"/>
<stop offset="1" stop-color="#0894D0" stop-opacity="0"/>
</linearGradient>
<radialGradient id="paint8_radial_4_36" cx="0" cy="0" r="1" gradientUnits="userSpaceOnUse" gradientTransform="translate(1418.82 796.635) rotate(97.267) scale(57.8295)">
<stop stop-color="#273B4E"/>
<stop offset="1" stop-color="#222632"/>
</radialGradient>
<linearGradient id="paint9_linear_4_36" x1="1463.54" y1="745.117" x2="1394.96" y2="854" gradientUnits="userSpaceOnUse">
<stop stop-color="#0894D0"/>
<stop offset="1" stop-color="#0894D0" stop-opacity="0"/>
</linearGradient>
<radialGradient id="paint10_radial_4_36" cx="0" cy="0" r="1" gradientUnits="userSpaceOnUse" gradientTransform="translate(242.815 891.635) rotate(97.267) scale(57.8295)">
<stop stop-color="#273B4E"/>
<stop offset="1" stop-color="#222632"/>
</radialGradient>
<linearGradient id="paint11_linear_4_36" x1="287.535" y1="840.117" x2="218.957" y2="949" gradientUnits="userSpaceOnUse">
<stop stop-color="#0894D0"/>
<stop offset="1" stop-color="#0894D0" stop-opacity="0"/>
</linearGradient>
<linearGradient id="paint12_linear_4_36" x1="78.7998" y1="159.599" x2="53.5" y2="189" gradientUnits="userSpaceOnUse">
<stop stop-color="#273B4E" stop-opacity="0"/>
<stop offset="1" stop-color="#273B4E"/>
</linearGradient>
<linearGradient id="paint13_linear_4_36" x1="78.7998" y1="159.599" x2="43" y2="204.5" gradientUnits="userSpaceOnUse">
<stop stop-color="#0894D0" stop-opacity="0.48"/>
<stop offset="1" stop-color="#0894D0" stop-opacity="0"/>
</linearGradient>
<linearGradient id="paint14_linear_4_36" x1="1372.51" y1="499.94" x2="1384.4" y2="524.449" gradientUnits="userSpaceOnUse">
<stop stop-color="#273B4E" stop-opacity="0"/>
<stop offset="1" stop-color="#273B4E"/>
</linearGradient>
<linearGradient id="paint15_linear_4_36" x1="1372.51" y1="499.94" x2="1391.45" y2="535.542" gradientUnits="userSpaceOnUse">
<stop stop-color="#0894D0" stop-opacity="0.48"/>
<stop offset="1" stop-color="#0894D0" stop-opacity="0"/>
</linearGradient>
<linearGradient id="paint16_linear_4_36" x1="729.001" y1="781.068" x2="721.067" y2="816.358" gradientUnits="userSpaceOnUse">
<stop stop-color="#273B4E" stop-opacity="0"/>
<stop offset="1" stop-color="#273B4E"/>
</linearGradient>
<linearGradient id="paint17_linear_4_36" x1="729.001" y1="781.068" x2="719.22" y2="833.718" gradientUnits="userSpaceOnUse">
<stop stop-color="#0894D0" stop-opacity="0.48"/>
<stop offset="1" stop-color="#0894D0" stop-opacity="0"/>
</linearGradient>
<linearGradient id="paint18_linear_4_36" x1="853.921" y1="175.516" x2="852.791" y2="215.774" gradientUnits="userSpaceOnUse">
<stop stop-color="#273B4E" stop-opacity="0"/>
<stop offset="1" stop-color="#273B4E"/>
</linearGradient>
<linearGradient id="paint19_linear_4_36" x1="853.921" y1="175.516" x2="854.483" y2="235.14" gradientUnits="userSpaceOnUse">
<stop stop-color="#0894D0" stop-opacity="0.48"/>
<stop offset="1" stop-color="#0894D0" stop-opacity="0"/>
</linearGradient>
<linearGradient id="paint20_linear_4_36" x1="899.098" y1="484.456" x2="891.885" y2="532.417" gradientUnits="userSpaceOnUse">
<stop stop-color="#222632" stop-opacity="0"/>
<stop offset="0.0635414" stop-color="#222632" stop-opacity="0"/>
<stop offset="1" stop-color="#222632"/>
</linearGradient>
<linearGradient id="paint21_linear_4_36" x1="924.809" y1="488.323" x2="886.902" y2="565.544" gradientUnits="userSpaceOnUse">
<stop stop-color="#0894D0"/>
<stop offset="1" stop-color="#0894D0" stop-opacity="0"/>
</linearGradient>
<linearGradient id="paint22_linear_4_36" x1="96.3015" y1="360.472" x2="91.3364" y2="393.483" gradientUnits="userSpaceOnUse">
<stop stop-color="#222632" stop-opacity="0"/>
<stop offset="0.0635414" stop-color="#222632" stop-opacity="0"/>
<stop offset="1" stop-color="#222632"/>
</linearGradient>
<linearGradient id="paint23_linear_4_36" x1="113.999" y1="363.133" x2="87.9068" y2="416.285" gradientUnits="userSpaceOnUse">
<stop stop-color="#0894D0"/>
<stop offset="1" stop-color="#0894D0" stop-opacity="0"/>
</linearGradient>
<linearGradient id="paint24_linear_4_36" x1="1607.42" y1="17.3447" x2="1627.16" y2="44.2675" gradientUnits="userSpaceOnUse">
<stop stop-color="#222632" stop-opacity="0"/>
<stop offset="0.0635414" stop-color="#222632" stop-opacity="0"/>
<stop offset="1" stop-color="#222632"/>
</linearGradient>
<linearGradient id="paint25_linear_4_36" x1="1621.85" y1="6.76349" x2="1640.79" y2="62.8636" gradientUnits="userSpaceOnUse">
<stop stop-color="#0894D0"/>
<stop offset="1" stop-color="#0894D0" stop-opacity="0"/>
</linearGradient>
</defs>
</svg>
